<svg width="287" height="288" viewBox="0 0 287 288" fill="none" xmlns="http://www.w3.org/2000/svg">
<path d="M19.3676 159.691C19.3676 159.691 19.5203 196.075 30.5827 226.832C30.5827 226.832 39.8154 258.338 39.9872 241.879C39.9872 241.879 44.8221 256.203 48.4483 258.797C48.6066 258.907 48.7911 258.974 48.9833 258.991C49.1755 259.008 49.3688 258.975 49.5442 258.894C49.7195 258.813 49.8706 258.688 49.9827 258.531C50.0947 258.374 50.1638 258.19 50.1829 257.998C50.4164 255.724 50.7479 249.616 49.445 238.418C49.445 238.418 52.5174 257.628 56.8471 257.487C56.8471 257.487 59.8006 252.838 58.5701 233.133C58.5701 233.133 61.8001 241.204 65.4178 240.459C65.4178 240.459 65.9581 229.375 56.6396 205.974C56.6396 205.974 41.2703 172.388 40.7373 163.4L27.1492 149.855L19.3676 159.691Z" fill="#2F2E41"/>
<path d="M19.7652 140.331C19.7652 140.331 13.3 151.106 17.659 149.309C17.659 149.309 14.4509 158.727 16.3415 162.714C17.0943 161.479 18.132 160.442 19.3676 159.691C19.3676 159.691 19.6686 166.525 21.947 169.541C21.947 169.541 22.0603 165.199 23.6643 163.766C23.6643 163.766 24.2677 168.463 27.2623 170.82L28.1992 164.297C28.1992 164.297 30.1848 168.302 31.1356 168.82C31.1356 168.82 32.4521 163.239 34.4068 163.01C34.4068 163.01 34.4015 167.496 37.1807 169.559C37.1807 169.559 38.3161 164.343 40.7528 163.415C40.7528 163.415 41.6129 166.357 43.4058 167.254L46.6327 164.841C47.0638 164.516 47.5968 164.355 48.1359 164.387C48.5758 164.415 49.3084 164.196 50.4058 163.138C51.6604 164.759 53.4527 165.879 55.46 166.296C55.46 166.296 54.1714 165.471 54.7079 163.498C56.1991 165.427 58.3184 166.774 60.6984 167.306C60.3828 166.87 60.157 166.376 60.0341 165.853C59.9112 165.329 59.8937 164.786 59.9826 164.256C60.9038 165.171 62.007 165.882 63.2207 166.343C64.4344 166.804 65.7314 167.004 67.0277 166.932C67.0277 166.932 64.8909 166.359 64.0795 163.171C64.0795 163.171 70.621 167.067 76.1226 166.059L70.5052 135.153L56.6075 133.156L35.3847 140.382L24.5218 136.261L19.7652 140.331Z" fill="#5D25B9"/>
<path opacity="0.5" d="M19.7652 140.331C19.7652 140.331 13.3 151.106 17.659 149.309C17.659 149.309 14.4509 158.727 16.3415 162.714C17.0943 161.479 18.132 160.442 19.3676 159.691C19.3676 159.691 19.6686 166.525 21.947 169.541C21.947 169.541 22.0603 165.199 23.6643 163.766C23.6643 163.766 24.2677 168.463 27.2623 170.82L28.1992 164.297C28.1992 164.297 30.1848 168.302 31.1356 168.82C31.1356 168.82 32.4521 163.239 34.4068 163.01C34.4068 163.01 34.4015 167.496 37.1807 169.559C37.1807 169.559 38.3161 164.343 40.7528 163.415C40.7528 163.415 41.6129 166.357 43.4058 167.254L46.6327 164.841C47.0638 164.516 47.5968 164.355 48.1359 164.387C48.5758 164.415 49.3084 164.196 50.4058 163.138C51.6604 164.759 53.4527 165.879 55.46 166.296C55.46 166.296 54.1714 165.471 54.7079 163.498C56.1991 165.427 58.3184 166.774 60.6984 167.306C60.3828 166.87 60.157 166.376 60.0341 165.853C59.9112 165.329 59.8937 164.786 59.9826 164.256C60.9038 165.171 62.007 165.882 63.2207 166.343C64.4344 166.804 65.7314 167.004 67.0277 166.932C67.0277 166.932 64.8909 166.359 64.0795 163.171C64.0795 163.171 70.621 167.067 76.1226 166.059L70.5052 135.153L56.6075 133.156L35.3847 140.382L24.5218 136.261L19.7652 140.331Z" fill="white"/>
<path d="M22.8238 135.942C22.8238 135.942 18.127 141.574 19.7445 141.93C19.7445 141.93 20.2301 142.999 24.98 139.469C24.98 139.469 19.8178 145.962 22.3843 145.922C22.3843 145.922 24.2885 146.045 32.0233 141.262C32.0233 141.262 27.193 150.82 38.1038 144.443C38.1038 144.443 35.14 148.114 38.8741 146.218C38.8741 146.218 43.9333 145.139 49.677 137.904C49.677 137.904 50.5241 139.144 49.0393 142.344C49.0393 142.344 53.5593 141.218 57.4629 136.226L61.5683 133.075L55.5654 123.482L44.5204 121.896C44.5204 121.896 22.7468 129.495 22.8238 135.942Z" fill="#5D25B9"/>
<path d="M42.9154 93.4916C38.5672 99.7198 35.0575 106.493 32.4767 113.637C31.0564 117.645 29.1544 121.466 26.8125 125.015C24.549 128.414 21.4745 132.206 17.6725 135.1C17.6725 135.1 14.3522 138.595 25.4745 135.195C25.4745 135.195 18.1309 142.599 32.885 136.131C32.885 136.131 24.5729 144.932 43.3446 135.583C43.3446 135.583 40.3685 141.409 48.8671 136.376C48.8671 136.376 51.8047 134.619 56.0615 129.98C56.0615 129.98 54.5951 133.484 58.0015 131.923L63.4295 94.1349L51.5681 91.7742L42.9154 93.4916Z" fill="#5D25B9"/>
<path opacity="0.2" d="M42.9814 93.0308C38.62 99.3305 35.1006 106.173 32.5127 113.385C31.0872 117.431 29.1798 121.291 26.8316 124.881C24.5631 128.314 21.483 132.145 17.676 135.074C17.676 135.074 14.3526 138.591 25.4792 135.16C25.4792 135.16 18.1243 142.643 32.8897 136.096C32.8897 136.096 24.5639 144.993 43.3524 135.526C43.3524 135.526 40.3676 141.413 48.875 136.32C48.875 136.32 51.8181 134.523 56.08 129.85C56.08 129.85 54.6079 133.393 58.0175 131.81L63.4992 93.648L51.6384 91.283L42.9814 93.0308Z" fill="black"/>
<path d="M62.4775 67.1118C62.4775 67.1118 39.2413 91.8145 43.0248 97.4841C43.0248 97.4841 45.1568 98.678 47.6699 94.5609C47.6699 94.5609 40.7442 107.089 43.0008 109.237C43.0008 109.237 44.7749 111.316 49.6502 101.383C49.6502 101.383 48.6783 106.542 51.7586 104.872C52.2166 104.616 52.6287 104.285 52.9777 103.893C55.5646 100.969 57.8336 97.7777 59.7464 94.3739C59.7464 94.3739 59.2575 97.6234 61.5197 95.7781C61.5197 95.7781 63.2022 87.6804 65.0769 82.4464L65.4482 70.592L62.4775 67.1118Z" fill="#5D25B9"/>
<path opacity="0.1" d="M62.4775 67.1118C62.4775 67.1118 39.2413 91.8145 43.0248 97.4841C43.0248 97.4841 45.1568 98.678 47.6699 94.5609C47.6699 94.5609 40.7442 107.089 43.0008 109.237C43.0008 109.237 44.7749 111.316 49.6502 101.383C49.6502 101.383 48.6783 106.542 51.7586 104.872C52.2166 104.616 52.6287 104.285 52.9777 103.893C55.5646 100.969 57.8336 97.7777 59.7464 94.3739C59.7464 94.3739 59.2575 97.6234 61.5197 95.7781C61.5197 95.7781 63.2022 87.6804 65.0769 82.4464L65.4482 70.592L62.4775 67.1118Z" fill="black"/>
<path d="M133.473 142.402C133.473 142.402 134.853 142.567 134.673 139.267C134.673 139.267 141.768 143.873 145.15 142.022C145.15 142.022 147.047 138.591 139.129 133.84C139.129 133.84 152.924 141.134 160.629 137.094C160.629 137.094 160.431 133.95 153.979 130.79C153.979 130.79 163.846 134.307 173.711 132.245C173.8 132.227 173.884 132.187 173.955 132.131C174.027 132.074 174.085 132.001 174.123 131.918C174.162 131.836 174.181 131.745 174.178 131.654C174.176 131.562 174.152 131.473 174.109 131.392C173.62 130.493 172.183 128.828 167.941 126.909C167.941 126.909 179.612 130.213 192.368 126.243C192.491 126.205 192.602 126.132 192.687 126.035C192.771 125.937 192.827 125.817 192.847 125.689C192.868 125.562 192.852 125.431 192.802 125.311C192.752 125.192 192.669 125.089 192.564 125.014C190.93 123.852 187.295 121.612 181.045 119.59C181.045 119.59 197.575 124.716 212.863 118.841C212.863 118.841 211.378 116.544 198.913 113.606C198.913 113.606 214.727 113.829 220.429 109.187C220.429 109.187 219.773 106.716 199.336 104.402C199.336 104.402 222.867 104.395 230.8 96.0111C230.8 96.0111 229.23 94.0195 215.555 93.1639C215.555 93.1639 246.595 91.2245 259.459 77.7831L211.24 80.6272C211.24 80.6272 254.231 75.7984 263.745 60.1523C263.745 60.1523 256.549 58.9393 229.602 64.8458L196.844 71.5198C196.844 71.5198 225.808 66.9616 239.098 35.8748C239.098 35.8748 167.92 76.8411 146.744 81.6072L121.932 91.708L104.908 118.785L107.617 129.028L125.022 137.652C125.022 137.652 129.863 140.632 133.473 142.402Z" fill="#5D25B9"/>
<path d="M151.874 79.1761C151.874 79.1761 174.197 77.1456 184.845 81.3779C184.939 81.4146 185.021 81.4785 185.079 81.5615C185.138 81.6445 185.17 81.743 185.173 81.8444C185.175 81.9459 185.148 82.0458 185.093 82.1316C185.039 82.2174 184.961 82.2853 184.868 82.3266C182.429 83.3964 175.721 85.7881 165.519 85.3168C165.519 85.3168 173.543 85.7504 176.556 87.6035C176.646 87.66 176.719 87.7408 176.765 87.8365C176.812 87.9323 176.83 88.0392 176.819 88.145C176.807 88.2507 176.766 88.3512 176.7 88.4347C176.634 88.5182 176.546 88.5816 176.446 88.6174C174.044 89.4884 166.892 91.4834 156.073 89.4056C156.073 89.4056 167.312 92.8841 166.583 94.7144C166.583 94.7144 160.197 95.9142 156.431 93.953C156.431 93.953 160.91 97.6276 159.619 97.9615C159.619 97.9615 152.958 98.9485 145.179 93.93C145.179 93.93 148.973 98.8821 149.736 102.374C149.75 102.433 149.748 102.495 149.728 102.553C149.709 102.611 149.675 102.662 149.628 102.701C149.581 102.741 149.525 102.766 149.465 102.775C149.404 102.785 149.343 102.777 149.287 102.753C147.438 101.998 145.775 100.85 144.413 99.3899L143.84 85.2119L145.446 80.6759L151.874 79.1761Z" fill="#E6E7E8"/>
<path d="M144.887 89.7474C144.887 89.7474 146.495 97.2791 142.951 103.228C142.951 103.228 143.238 117.915 134.747 118.812L111.555 84.9372L117.915 81.448L141.178 87.2085L143.917 87.602L144.887 89.7474Z" fill="#5D25B9"/>
<path opacity="0.5" d="M144.887 89.7474C144.887 89.7474 146.495 97.2791 142.951 103.228C142.951 103.228 143.238 117.915 134.747 118.812L111.555 84.9372L117.915 81.448L141.178 87.2085L143.917 87.602L144.887 89.7474Z" fill="white"/>
<path d="M120.131 77.022L108.416 74.4738L79.5174 49.9514C81.4112 48.1375 86.1804 47.0384 86.1804 47.0384C81.6433 44.4517 91.1389 43.601 91.1389 43.601C85.8259 40.1749 102.649 38.1532 102.649 38.1532C102.232 38.3139 101.843 38.5397 101.496 38.822C100.546 39.5998 99.6594 40.8882 101.016 42.5388C101.016 42.5388 98.705 42.6507 98.3318 44.7851C98.2634 45.1554 98.3158 45.5379 98.4813 45.8762C98.8393 46.5062 99.3489 47.0371 99.9637 47.4206C99.9637 47.4206 97.863 48.4503 98.2219 50.2771C98.2974 50.6079 98.4417 50.919 98.6456 51.1901C99.0978 51.7911 99.6534 52.3067 100.286 52.7129C100.286 52.7129 95.4529 56.6698 102.872 59.7415C102.872 59.7415 98.8154 62.9535 105.767 65.8826C105.767 65.8826 104.174 69.5196 113.191 70.0291C113.191 70.0291 109.431 73.2792 120.23 75.8336C120.098 75.9998 120.018 76.2013 120.001 76.4127C119.983 76.6242 120.028 76.8361 120.131 77.022V77.022Z" fill="#5D25B9"/>
<path opacity="0.4" d="M120.131 77.022L108.416 74.4738L79.5174 49.9514C81.4112 48.1375 86.1804 47.0384 86.1804 47.0384C81.6433 44.4517 91.1389 43.601 91.1389 43.601C85.8259 40.1749 102.649 38.1532 102.649 38.1532C102.232 38.3139 101.843 38.5397 101.496 38.822C100.546 39.5998 99.6594 40.8882 101.016 42.5388C101.016 42.5388 98.705 42.6507 98.3318 44.7851C98.2634 45.1554 98.3158 45.5379 98.4813 45.8762C98.8393 46.5062 99.3489 47.0371 99.9637 47.4206C99.9637 47.4206 97.863 48.4503 98.2219 50.2771C98.2974 50.6079 98.4417 50.919 98.6456 51.1901C99.0978 51.7911 99.6534 52.3067 100.286 52.7129C100.286 52.7129 95.4529 56.6698 102.872 59.7415C102.872 59.7415 98.8154 62.9535 105.767 65.8826C105.767 65.8826 104.174 69.5196 113.191 70.0291C113.191 70.0291 109.431 73.2792 120.23 75.8336C120.098 75.9998 120.018 76.2013 120.001 76.4127C119.983 76.6242 120.028 76.8361 120.131 77.022V77.022Z" fill="black"/>
<path d="M108.416 74.4736C111.768 77.7567 114.646 81.4908 116.968 85.5682C117.018 85.6552 117.086 85.4608 117.078 85.362C117.019 84.781 116.947 84.0429 117.385 83.9637C117.385 83.9637 118.459 83.0705 118.016 86.1492L120.622 88.9601C120.622 88.9601 124.134 83.047 123.839 86.4619C123.839 86.4619 123.513 92.2824 125.92 89.801C125.92 89.801 126.849 88.1236 126.998 90.7282C126.998 90.7282 127.313 93.667 128.707 93.45C128.707 93.45 130.226 94.0545 132.309 88.6417C132.309 88.6417 133.077 87.8066 133.314 89.8334C133.314 89.8334 133.589 93.0152 135.406 92.7526C135.406 92.7526 137.21 93.3268 137.464 87.9131C137.464 87.9131 140.164 93.467 143.146 88.5208C143.146 88.5208 143.853 90.2733 144.889 89.7653C144.981 89.7191 145.06 89.6506 145.119 89.566C145.178 89.4814 145.214 89.3834 145.225 89.281C145.327 88.2659 145.74 84.6771 146.701 83.3017L120.133 77.0399L108.416 74.4736Z" fill="#5D25B9"/>
<path opacity="0.2" d="M108.416 74.4736C111.768 77.7567 114.646 81.4908 116.968 85.5682C117.018 85.6552 117.086 85.4608 117.078 85.362C117.019 84.781 116.947 84.0429 117.385 83.9637C117.385 83.9637 118.459 83.0705 118.016 86.1492L120.622 88.9601C120.622 88.9601 124.134 83.047 123.839 86.4619C123.839 86.4619 123.513 92.2824 125.92 89.801C125.92 89.801 126.849 88.1236 126.998 90.7282C126.998 90.7282 127.313 93.667 128.707 93.45C128.707 93.45 130.226 94.0545 132.309 88.6417C132.309 88.6417 133.077 87.8066 133.314 89.8334C133.314 89.8334 133.589 93.0152 135.406 92.7526C135.406 92.7526 137.21 93.3268 137.464 87.9131C137.464 87.9131 140.164 93.467 143.146 88.5208C143.146 88.5208 143.853 90.2733 144.889 89.7653C144.981 89.7191 145.06 89.6506 145.119 89.566C145.178 89.4814 145.214 89.3834 145.225 89.281C145.327 88.2659 145.74 84.6771 146.701 83.3017L120.133 77.0399L108.416 74.4736Z" fill="black"/>
<path d="M163.723 63.7025L158.823 72.017C156.89 72.0279 154.394 75.9655 154.394 75.9655C151.695 79.7986 149.731 81.3316 149.731 81.3316C143.511 86.0703 143.103 82.9537 143.103 82.9537C136.312 86.2611 137.289 82.8908 137.289 82.8908C128.911 84.084 129.824 81.7164 129.824 81.7164C122.902 81.3923 124.901 78.91 124.901 78.91C121.661 78.4447 120.506 77.6796 120.165 77.027C120.069 76.842 120.029 76.6332 120.049 76.4257C120.07 76.2183 120.15 76.0212 120.28 75.8585C109.48 73.3041 113.24 70.054 113.24 70.054C104.224 69.5445 105.816 65.9075 105.816 65.9075C98.865 62.9784 102.921 59.7664 102.921 59.7664C95.5025 56.6947 100.336 52.7378 100.336 52.7378C99.703 52.3316 99.1474 51.816 98.6952 51.215C98.4913 50.9438 98.347 50.6327 98.2715 50.302C97.8952 48.4727 100.013 47.4455 100.013 47.4455C99.3985 47.0619 98.889 46.5311 98.5309 45.9011C98.3654 45.5628 98.313 45.1803 98.3814 44.81C98.7539 42.6799 101.065 42.5637 101.065 42.5637C99.709 40.9131 100.6 39.6253 101.546 38.8469C101.892 38.5646 102.281 38.3388 102.698 38.1781C102.998 38.0558 103.309 37.9608 103.627 37.8942C106.225 37.2955 108.623 35.0613 108.623 35.0613C110.211 33.4976 111.948 32.0928 113.81 30.8668L136.444 42.271L152.132 50.6803L163.723 63.7025Z" fill="#2F2E41"/>
<path d="M65.09 82.448C65.09 82.448 56.3651 108.552 57.4432 135.682C57.4432 135.682 57.9481 158.522 65.1953 164.241C65.299 164.324 65.4197 164.384 65.5488 164.415C65.6779 164.447 65.8124 164.45 65.9428 164.425C66.0733 164.399 66.1966 164.345 66.3041 164.267C66.4116 164.189 66.5008 164.088 66.5654 163.972C67.4009 162.512 68.9543 158.989 69.3917 152.484C69.3917 152.484 75.7419 174.89 79.4343 177.919C79.4343 177.919 82.3946 176.467 81.9587 166.525C81.9587 166.525 88.2941 191.197 98.0222 197.472L98.2124 179.618C98.2124 179.618 103.85 203.062 109.187 207.708L116.609 216.257C116.639 216.311 116.688 216.353 116.746 216.374C116.805 216.395 116.869 216.395 116.926 216.372C116.984 216.349 117.032 216.306 117.06 216.251C117.088 216.195 117.095 216.132 117.08 216.071L115.189 194.812C115.189 194.812 121.935 214.004 131.92 218.518C131.92 218.518 133.816 217.495 130.674 205.411C130.674 205.411 126.219 192.89 125.595 186.795C125.595 186.795 136.23 214.713 152.706 220.084C152.706 220.084 154.438 219.33 150.997 209.333C150.997 209.333 144.81 194.935 142.943 187.911C142.943 187.911 152.15 214.376 168.859 228.657C168.859 228.657 180.345 238.296 190.332 241.994C190.332 241.994 190.958 241.96 189.321 235.098C189.321 235.098 160.807 181.974 156.87 176.291C156.87 176.291 187.043 230.901 213.008 232.132C213.008 232.132 213.535 231.955 207.589 221.097C207.589 221.097 183.681 186.396 179.172 180.369C179.172 180.369 214.685 212.61 233.722 204.591C233.722 204.591 235.197 202.175 220.918 190.995C220.918 190.995 163.734 150.351 145.485 126.777L86.6887 83.2027L65.09 82.448Z" fill="#5D25B9"/>
<path opacity="0.4" d="M65.09 82.448C65.09 82.448 56.3651 108.552 57.4432 135.682C57.4432 135.682 57.9481 158.522 65.1953 164.241C65.299 164.324 65.4197 164.384 65.5488 164.415C65.6779 164.447 65.8124 164.45 65.9428 164.425C66.0733 164.399 66.1966 164.345 66.3041 164.267C66.4116 164.189 66.5008 164.088 66.5654 163.972C67.4009 162.512 68.9543 158.989 69.3917 152.484C69.3917 152.484 75.7419 174.89 79.4343 177.919C79.4343 177.919 82.3946 176.467 81.9587 166.525C81.9587 166.525 88.2941 191.197 98.0222 197.472L98.2124 179.618C98.2124 179.618 103.85 203.062 109.187 207.708L116.609 216.257C116.639 216.311 116.688 216.353 116.746 216.374C116.805 216.395 116.869 216.395 116.926 216.372C116.984 216.349 117.032 216.306 117.06 216.251C117.088 216.195 117.095 216.132 117.08 216.071L115.189 194.812C115.189 194.812 121.935 214.004 131.92 218.518C131.92 218.518 133.816 217.495 130.674 205.411C130.674 205.411 126.219 192.89 125.595 186.795C125.595 186.795 136.23 214.713 152.706 220.084C152.706 220.084 154.438 219.33 150.997 209.333C150.997 209.333 144.81 194.935 142.943 187.911C142.943 187.911 152.15 214.376 168.859 228.657C168.859 228.657 180.345 238.296 190.332 241.994C190.332 241.994 190.958 241.96 189.321 235.098C189.321 235.098 160.807 181.974 156.87 176.291C156.87 176.291 187.043 230.901 213.008 232.132C213.008 232.132 213.535 231.955 207.589 221.097C207.589 221.097 183.681 186.396 179.172 180.369C179.172 180.369 214.685 212.61 233.722 204.591C233.722 204.591 235.197 202.175 220.918 190.995C220.918 190.995 163.734 150.351 145.485 126.777L86.6887 83.2027L65.09 82.448Z" fill="black"/>
<path d="M77.2223 188.466C77.7332 188.196 78.1485 187.775 78.4117 187.261C78.5225 187.028 78.6109 186.785 78.6757 186.535C78.8353 185.658 78.7665 184.754 78.4758 183.91C77.9617 182.685 77.6464 181.386 77.5419 180.062C77.3991 178.885 77.7289 177.7 78.459 176.767C77.9678 176.097 77.5537 175.373 77.2243 174.61L65.8142 166.913C65.8142 166.913 62.3662 166.817 59.9844 164.243C59.9844 164.243 60.1694 166.045 62.8772 167.246L70.6078 172.905C70.6078 172.905 63.2847 172.967 69.3607 179.61L69.6482 180.481C68.912 181.378 68.3364 182.396 67.9467 183.49C67.8404 183.792 67.8445 184.121 67.9584 184.421C68.0723 184.72 68.2885 184.969 68.5686 185.124C69.0182 185.361 69.5451 185.308 69.8765 184.206C70.0874 183.477 70.4219 182.79 70.8653 182.174C72.1166 180.476 74.4598 177.604 74.9357 179.172C74.9357 179.172 74.7549 182.408 75.6526 184.1C75.7866 184.353 75.8626 184.634 75.8753 184.92C75.888 185.207 75.837 185.493 75.726 185.757C75.615 186.022 75.4467 186.259 75.2333 186.45C75.0199 186.642 74.7667 186.784 74.4918 186.867L74.2345 186.927C74.2345 186.927 69.7058 187.99 70.2571 190.146C70.2571 190.146 70.5725 191.967 72.6677 190.049C72.6677 190.049 74.4787 188.471 76.6443 188.689C76.8467 188.632 77.0416 188.552 77.2248 188.449L77.2223 188.466ZM70.2368 179.474C70.2368 179.474 71.3085 178.656 70.0262 176.954C70.0262 176.954 68.4549 174.731 71.2707 174.47L73.3232 174.764C73.3232 174.764 72.7469 179.271 70.2355 179.482L70.2368 179.474Z" fill="#2F2E41"/>
<path d="M82.0908 184.483C82.0152 183.337 81.6162 182.237 80.9402 181.309C79.4619 179.241 79.4257 177.918 79.4257 177.918L78.4418 176.764C78.1611 177.143 77.9328 177.558 77.7631 177.998C77.5688 178.662 77.4948 179.355 77.5446 180.044V180.044L79.2855 182.385C80.9894 185.971 78.842 185.472 78.842 185.472C78.8252 185.825 78.7748 186.176 78.6915 186.52C78.6357 186.772 78.5469 187.016 78.4275 187.245C78.3188 187.515 78.1577 187.76 77.9536 187.967C77.7494 188.174 77.5062 188.338 77.2381 188.45C81.4342 188.498 82.1926 186.308 82.0908 184.483Z" fill="#2F2E41"/>
<path d="M144.332 56.9448C146.664 57.2798 148.825 55.6609 149.16 53.3289C149.495 50.997 147.877 48.835 145.545 48.5001C143.213 48.1651 141.051 49.784 140.716 52.1159C140.381 54.4479 142 56.6098 144.332 56.9448Z" fill="white"/>
<path d="M144.498 55.7882C146.385 56.0594 148.154 54.6166 148.449 52.5656C148.743 50.5147 147.452 48.6322 145.564 48.3611C143.677 48.0899 141.908 49.5327 141.613 51.5837C141.318 53.6347 142.61 55.5171 144.498 55.7882Z" fill="#5D25B9"/>
<path d="M144.649 52.5434C145.787 52.7069 146.842 51.9167 147.006 50.7783C147.169 49.64 146.379 48.5846 145.241 48.4211C144.103 48.2576 143.047 49.0478 142.884 50.1862C142.72 51.3245 143.51 52.3799 144.649 52.5434Z" fill="#2F2E41"/>
<path d="M115.484 56.103C115.484 56.103 112.329 53.9677 116.973 51.0842C116.973 51.0842 116.758 47.8844 126.067 48.6446C126.067 48.6446 133.287 49.2379 137.583 54.7992C137.583 54.7992 140.185 58.7457 144.41 58.7756C144.41 58.7756 153.947 59.9547 154.817 65.2679C154.817 65.2679 154.745 69.4472 156.321 70.8674C156.321 70.8674 153.751 71.3594 153.278 72.6494C153.278 72.6494 151.552 76.6267 147.974 76.1126C147.974 76.1126 145.349 79.6768 143.348 76.8906C143.348 76.8906 140.169 78.2625 139.418 76.1352C139.418 76.1352 136.108 78.447 134.13 75.4732C134.13 75.4732 128.667 76.7035 128.994 73.0979C128.994 73.0979 120.373 72.2457 121.492 67.7951C121.492 67.7951 115.302 67.3852 115.682 62.0786C115.689 62.0307 110.884 58.003 115.484 56.103Z" fill="#E6E7E8"/>
<path d="M121.325 28.9812C121.325 28.9812 112.882 27.8129 113.744 30.8348C113.744 30.8348 111.431 32.5086 113.239 33.4252C113.239 33.4252 110.454 36.1318 115.137 36.405C115.137 36.405 114.162 39.9443 119.582 39.4446C119.582 39.4446 117.898 41.2488 122.529 41.914L128.282 42.7404C128.282 42.7404 127.215 43.9896 135.361 45.0309C135.361 45.0309 135.961 47.2475 141.742 47.7229C141.742 47.7229 149.158 46.7687 150.608 53.5411C150.608 53.5411 150.949 57.3448 155.761 60.335C156.891 61.1534 157.79 62.2504 158.371 63.5192L163.732 63.7079C163.732 63.7079 162.091 58.0754 163.245 55.3563C163.245 55.3563 164.692 49.7945 162.165 46.1916C162.157 46.186 131.894 31.0364 121.325 28.9812Z" fill="#E6E7E8"/>
<path d="M125.396 27.9462C125.396 27.9462 120.268 26.2909 121.324 28.9812C121.484 29.3611 121.719 29.7048 122.015 29.9921C122.311 30.2793 122.661 30.5041 123.046 30.6532C123.465 30.8244 124.081 31.046 124.905 31.302C124.905 31.302 122.595 34.716 129.692 35.3316C129.692 35.3316 128.132 37.6372 133.355 37.9835C133.355 37.9835 131.178 40.5024 139.894 40.4407C139.894 40.4407 138.547 42.0668 144.923 42.7831C144.923 42.7831 142.78 44.2949 147.727 45.8177C147.727 45.8177 155.431 48.5442 157.512 54.5107C157.512 54.5107 158.221 51.6789 158.153 50.0492C159.441 51.1671 160.42 52.5977 160.996 54.2034C160.996 54.2034 164.049 50.5899 162.15 46.1674C162.15 46.1674 155.19 33.3221 137.439 28.6464C137.439 28.6464 123.752 24.1328 124.828 26.8349L125.396 27.9462Z" fill="#2F2E41"/>
<path d="M169.565 73.5512C169.23 73.0965 168.82 72.7028 168.352 72.3872C166.898 71.2908 163.875 69.7471 157.981 68.8249C157.981 68.8249 156.033 68.5451 155.005 67.6652C154.376 67.131 154.099 66.3455 154.823 65.2557C154.823 65.2557 158.365 60.3143 163.727 63.7075C163.723 63.7025 171.013 68.7797 169.565 73.5512Z" fill="#2F2E41"/>
<path opacity="0.2" d="M169.565 73.5512C169.23 73.0965 168.82 72.7028 168.352 72.3872C166.898 71.2908 163.875 69.7471 157.981 68.8249C157.981 68.8249 156.033 68.5451 155.005 67.6652C154.376 67.131 154.099 66.3455 154.823 65.2557C154.823 65.2557 158.365 60.3143 163.727 63.7075C163.723 63.7025 171.013 68.7797 169.565 73.5512Z" fill="black"/>
<path d="M168.355 72.3964C166.542 71.7588 164.059 72.1744 162.988 72.4022C162.466 72.519 161.934 72.5911 161.399 72.6178C157.048 72.7872 156.326 70.8594 156.326 70.8594C155.323 69.8721 155.025 67.8055 155.008 67.6787C156.035 68.563 157.983 68.8384 157.983 68.8384C163.878 69.7606 166.897 71.3261 168.354 72.4008L168.355 72.3964Z" fill="#2F2E41"/>
<path opacity="0.4" d="M168.355 72.3964C166.542 71.7588 164.059 72.1744 162.988 72.4022C162.466 72.519 161.934 72.5911 161.399 72.6178C157.048 72.7872 156.326 70.8594 156.326 70.8594C155.323 69.8721 155.025 67.8055 155.008 67.6787C156.035 68.563 157.983 68.8384 157.983 68.8384C163.878 69.7606 166.897 71.3261 168.354 72.4008L168.355 72.3964Z" fill="black"/>
<path d="M146.135 126.728C139.973 127.175 128.67 121.632 128.385 121.489C130.801 123.203 131.98 124.451 132.535 125.316C132.654 125.499 132.729 125.707 132.755 125.924C132.781 126.141 132.757 126.361 132.684 126.567C132.612 126.773 132.493 126.96 132.337 127.113C132.181 127.266 131.992 127.381 131.785 127.45C125.438 129.609 112.317 121.777 112.317 121.777C114.126 132.667 94.3504 114.212 94.3504 114.212C93.7214 121.063 79.8974 103.229 79.8974 103.229C70.8115 106.171 65.1846 82.7769 65.1053 82.4637C65.3896 83.0356 65.7241 83.5812 66.1049 84.0941C66.3988 84.4954 66.8037 84.802 67.2697 84.9759C70.0871 85.9709 72.4703 81.1516 73.0914 79.7629C73.1044 79.7397 73.1241 79.7209 73.148 79.7091C73.1719 79.6973 73.1988 79.693 73.2252 79.6968C73.2515 79.7006 73.2761 79.7123 73.2957 79.7303C73.3153 79.7484 73.329 79.772 73.3349 79.7979C73.8006 81.8087 76.0756 90.8432 79.2703 90.6941C79.2703 90.6941 81.2279 90.6913 82.0175 86.8014C82.0175 86.8014 84.6645 91.9793 87.8227 93.9686C88.0486 94.1117 88.3031 94.2038 88.5682 94.2383C88.8334 94.2729 89.1029 94.2491 89.358 94.1687C89.613 94.0882 89.8474 93.953 90.0447 93.7726C90.242 93.5921 90.3976 93.3707 90.5005 93.1239C90.8135 92.2492 90.9629 91.3244 90.9412 90.3956C90.9412 90.3956 93.8011 95.8215 96.5963 97.3725C96.8122 97.4923 97.0517 97.563 97.298 97.5798C97.5443 97.5966 97.7913 97.559 98.0214 97.4696C98.2515 97.3803 98.4591 97.2414 98.6296 97.0628C98.8 96.8842 98.9291 96.6703 99.0076 96.4363C99.3513 95.4027 99.6118 93.5894 99.339 90.4524C99.339 90.4524 102.658 97.8127 107.108 99.6725C109.818 100.799 108.827 95.9251 108.796 95.743C112.429 99.4294 115.448 100.693 117.142 101.105C117.353 101.157 117.573 101.163 117.786 101.121C117.999 101.079 118.201 100.991 118.377 100.864C118.553 100.736 118.699 100.571 118.805 100.381C118.911 100.191 118.974 99.9806 118.99 99.7637C119.363 95.1529 114.75 87.5088 114.75 87.5088L117.467 88.5783C117.559 88.6142 117.659 88.6227 117.756 88.6027C117.853 88.5828 117.941 88.5353 118.011 88.466C118.081 88.3967 118.13 88.3085 118.151 88.2122C118.172 88.1159 118.164 88.0156 118.13 87.9234C117.812 87.1125 117.434 86.3267 116.998 85.5728C117.389 85.6825 117.747 85.8863 118.04 86.1663L139.425 109.237C147.604 116.745 145.868 117.707 145.868 117.707C142.678 118.287 133.856 113.341 133.375 113.072C143.715 120.491 145.973 125.014 146.438 126.315C146.452 126.362 146.454 126.412 146.445 126.461C146.437 126.51 146.417 126.556 146.388 126.596C146.358 126.635 146.32 126.668 146.277 126.691C146.233 126.714 146.184 126.727 146.135 126.728V126.728Z" fill="#5D25B9"/>
<path opacity="0.2" d="M146.135 126.728C139.973 127.175 128.67 121.632 128.385 121.489C130.801 123.203 131.98 124.451 132.535 125.316C132.654 125.499 132.729 125.707 132.755 125.924C132.781 126.141 132.757 126.361 132.684 126.567C132.612 126.773 132.493 126.96 132.337 127.113C132.181 127.266 131.992 127.381 131.785 127.45C125.438 129.609 112.317 121.777 112.317 121.777C114.126 132.667 94.3504 114.212 94.3504 114.212C93.7214 121.063 79.8974 103.229 79.8974 103.229C70.8115 106.171 65.1846 82.7769 65.1053 82.4637C65.3896 83.0356 65.7241 83.5812 66.1049 84.0941C66.3988 84.4954 66.8037 84.802 67.2697 84.9759C70.0871 85.9709 72.4703 81.1516 73.0914 79.7629C73.1044 79.7397 73.1241 79.7209 73.148 79.7091C73.1719 79.6973 73.1988 79.693 73.2252 79.6968C73.2515 79.7006 73.2761 79.7123 73.2957 79.7303C73.3153 79.7484 73.329 79.772 73.3349 79.7979C73.8006 81.8087 76.0756 90.8432 79.2703 90.6941C79.2703 90.6941 81.2279 90.6913 82.0175 86.8014C82.0175 86.8014 84.6645 91.9793 87.8227 93.9686C88.0486 94.1117 88.3031 94.2038 88.5682 94.2383C88.8334 94.2729 89.1029 94.2491 89.358 94.1687C89.613 94.0882 89.8474 93.953 90.0447 93.7726C90.242 93.5921 90.3976 93.3707 90.5005 93.1239C90.8135 92.2492 90.9629 91.3244 90.9412 90.3956C90.9412 90.3956 93.8011 95.8215 96.5963 97.3725C96.8122 97.4923 97.0517 97.563 97.298 97.5798C97.5443 97.5966 97.7913 97.559 98.0214 97.4696C98.2515 97.3803 98.4591 97.2414 98.6296 97.0628C98.8 96.8842 98.9291 96.6703 99.0076 96.4363C99.3513 95.4027 99.6118 93.5894 99.339 90.4524C99.339 90.4524 102.658 97.8127 107.108 99.6725C109.818 100.799 108.827 95.9251 108.796 95.743C112.429 99.4294 115.448 100.693 117.142 101.105C117.353 101.157 117.573 101.163 117.786 101.121C117.999 101.079 118.201 100.991 118.377 100.864C118.553 100.736 118.699 100.571 118.805 100.381C118.911 100.191 118.974 99.9806 118.99 99.7637C119.363 95.1529 114.75 87.5088 114.75 87.5088L117.467 88.5783C117.559 88.6142 117.659 88.6227 117.756 88.6027C117.853 88.5828 117.941 88.5353 118.011 88.466C118.081 88.3967 118.13 88.3085 118.151 88.2122C118.172 88.1159 118.164 88.0156 118.13 87.9234C117.812 87.1125 117.434 86.3267 116.998 85.5728C117.389 85.6825 117.747 85.8863 118.04 86.1663L139.425 109.237C147.604 116.745 145.868 117.707 145.868 117.707C142.678 118.287 133.856 113.341 133.375 113.072C143.715 120.491 145.973 125.014 146.438 126.315C146.452 126.362 146.454 126.412 146.445 126.461C146.437 126.51 146.417 126.556 146.388 126.596C146.358 126.635 146.32 126.668 146.277 126.691C146.233 126.714 146.184 126.727 146.135 126.728V126.728Z" fill="black"/>
<path d="M117.116 101.101C115.423 100.68 112.403 99.4255 108.77 95.7392C108.803 95.9082 109.792 100.795 107.083 99.6687C102.632 97.8089 99.3131 90.4485 99.3131 90.4485C99.5846 93.5943 99.3254 95.3989 98.9817 96.4324C98.9032 96.6665 98.7741 96.8804 98.6037 97.0589C98.4333 97.2375 98.2256 97.3764 97.9955 97.4658C97.7654 97.5551 97.5184 97.5927 97.2721 97.576C97.0259 97.5592 96.7863 97.4884 96.5704 97.3687C93.7839 95.8189 90.9414 90.3955 90.9414 90.3955C90.9632 91.3182 90.8162 92.2372 90.5075 93.107C90.4039 93.3553 90.2471 93.5777 90.048 93.7587C89.849 93.9396 89.6126 94.0746 89.3556 94.1541C89.0987 94.2337 88.8273 94.2557 88.5609 94.2188C88.2944 94.1819 88.0393 94.0869 87.8137 93.9406C84.6554 91.9513 82.0084 86.7734 82.0084 86.7734C81.2201 90.6545 79.2612 90.666 79.2612 90.666C76.0658 90.8195 73.7915 81.7807 73.3258 79.7698C73.3199 79.7439 73.3062 79.7203 73.2866 79.7023C73.2671 79.6842 73.2425 79.6725 73.2161 79.6687C73.1897 79.665 73.1628 79.6692 73.1389 79.6811C73.1151 79.6929 73.0953 79.7116 73.0823 79.7349C72.4612 81.1236 70.0755 85.9602 67.2607 84.9479C66.7946 84.7739 66.3897 84.4674 66.0958 84.066C65.715 83.5532 65.3805 83.0076 65.0962 82.4356V82.4356C63.5106 79.323 61.3776 72.3283 63.1258 58.6746C63.1258 58.6746 65.4018 43.9117 75.2506 45.0202C75.2506 45.0202 82.0337 44.2991 97.0666 61.4418C97.0666 61.4418 112.061 76.8437 116.979 85.5565C117.414 86.3104 117.793 87.0962 118.11 87.9071C118.145 87.9993 118.152 88.0996 118.131 88.1959C118.11 88.2922 118.062 88.3804 117.992 88.4497C117.922 88.519 117.833 88.5665 117.736 88.5865C117.64 88.6064 117.54 88.5979 117.448 88.562L114.73 87.4926C114.73 87.4926 119.344 95.1366 118.97 99.7474C118.956 99.9661 118.894 100.179 118.789 100.371C118.683 100.563 118.537 100.73 118.36 100.859C118.183 100.988 117.98 101.077 117.765 101.118C117.55 101.16 117.328 101.154 117.116 101.101V101.101Z" fill="#5D25B9"/>
<path d="M126.518 105.463C126.145 104.659 127.792 106.143 128.191 106.174C128.406 106.186 128.618 106.119 128.787 105.985C128.956 105.852 129.07 105.661 129.108 105.449C130.052 100.174 123.253 93.956 123.253 93.956C125.38 97.6921 125.589 100.558 125.589 100.558C125.002 100.998 123.502 98.9935 123.502 98.9935C120.275 94.4246 120.05 95.2135 120.05 95.2135C119.072 95.0729 122.069 102.787 122.069 102.787C124.405 109.881 123.447 110.623 123.447 110.623C122.053 111.243 117.078 105.305 117.078 105.305C114.741 102.36 114.364 102.576 114.364 102.576C113.833 102.287 113.972 106.816 113.972 106.816C114.181 109.225 113.953 110.537 113.643 111.242C113.582 111.385 113.491 111.512 113.375 111.615C113.26 111.718 113.123 111.794 112.974 111.838C112.826 111.882 112.67 111.892 112.517 111.868C112.364 111.844 112.218 111.786 112.09 111.699C108.653 109.336 103.11 99.6904 103.11 99.6904C102.198 98.0682 102.02 102.308 102.02 102.308C101.732 109.962 100.992 109.461 100.992 109.461C99.1703 109.199 92.6624 98.6734 92.6624 98.6734C92.0349 97.0787 91.8132 98.6224 91.8132 98.6224C91.9961 102.323 91.7167 103.712 91.404 104.777C91.3389 104.977 91.2269 105.158 91.0775 105.306C90.928 105.454 90.7454 105.564 90.5448 105.627C90.3442 105.689 90.1315 105.703 89.9245 105.667C89.7174 105.631 89.522 105.546 89.3545 105.419C86.299 103.023 80.9348 94.2682 80.9348 94.2682C79.7076 92.1213 79.151 92.0414 79.151 92.0414C78.4714 95.1659 77.5332 95.2708 77.5332 95.2708C74.6468 96.8267 68.9072 85 68.9072 85C68.9072 85 70.0257 98.5018 77.7804 101.027C78.0989 101.135 78.4446 101.13 78.76 101.014C79.0755 100.898 79.3416 100.677 79.5142 100.389C80.0507 99.3229 80.3853 98.1672 80.501 96.9797C80.501 96.9797 84.2971 109.699 91.3328 112.503C91.4715 112.56 91.622 112.582 91.7714 112.569C91.9209 112.556 92.0649 112.507 92.1914 112.426C92.7863 112.023 93.6322 110.738 94.0335 106.801C94.0335 106.801 98.02 115.94 102.557 117.324C103.032 117.466 103.543 117.427 103.991 117.213C104.438 116.999 104.79 116.626 104.978 116.167C105.362 115.219 105.738 113.591 105.848 110.82C105.848 110.82 111.308 120.391 117.076 119.44C117.076 119.44 119.141 119.062 118.455 113.336C118.455 113.336 122.997 117.708 127.555 117.182C127.811 117.15 128.052 117.046 128.25 116.882C128.448 116.718 128.595 116.5 128.674 116.255C129.123 114.917 129.41 111.75 126.518 105.463Z" fill="#E6E7E8"/>
</svg>
