<svg width="30" height="31" viewBox="0 0 30 31" fill="none" xmlns="http://www.w3.org/2000/svg">
<path d="M15 2.83813C13.3585 2.83813 11.733 3.16146 10.2165 3.78964C8.69989 4.41782 7.3219 5.33857 6.16117 6.4993C3.81696 8.8435 2.5 12.0229 2.5 15.3381C2.5 20.8631 6.0875 25.5506 11.05 27.2131C11.675 27.3131 11.875 26.9256 11.875 26.5881V24.4756C8.4125 25.2256 7.675 22.8006 7.675 22.8006C7.1 21.3506 6.2875 20.9631 6.2875 20.9631C5.15 20.1881 6.375 20.2131 6.375 20.2131C7.625 20.3006 8.2875 21.5006 8.2875 21.5006C9.375 23.4006 11.2125 22.8381 11.925 22.5381C12.0375 21.7256 12.3625 21.1756 12.7125 20.8631C9.9375 20.5506 7.025 19.4756 7.025 14.7131C7.025 13.3256 7.5 12.2131 8.3125 11.3256C8.1875 11.0131 7.75 9.71313 8.4375 8.02563C8.4375 8.02563 9.4875 7.68814 11.875 9.30063C12.8625 9.02563 13.9375 8.88813 15 8.88813C16.0625 8.88813 17.1375 9.02563 18.125 9.30063C20.5125 7.68814 21.5625 8.02563 21.5625 8.02563C22.25 9.71313 21.8125 11.0131 21.6875 11.3256C22.5 12.2131 22.975 13.3256 22.975 14.7131C22.975 19.4881 20.05 20.5381 17.2625 20.8506C17.7125 21.2381 18.125 22.0006 18.125 23.1631V26.5881C18.125 26.9256 18.325 27.3256 18.9625 27.2131C23.925 25.5381 27.5 20.8631 27.5 15.3381C27.5 13.6966 27.1767 12.0712 26.5485 10.5546C25.9203 9.03802 24.9996 7.66003 23.8388 6.4993C22.6781 5.33857 21.3001 4.41782 19.7835 3.78964C18.267 3.16146 16.6415 2.83813 15 2.83813Z" fill="#636363"/>
</svg>
