<svg width="30" height="31" viewBox="0 0 30 31" fill="none" xmlns="http://www.w3.org/2000/svg">
<path d="M15 2.83813C8.1 2.83813 2.5 8.43814 2.5 15.3381C2.5 22.2381 8.1 27.8381 15 27.8381C21.9 27.8381 27.5 22.2381 27.5 15.3381C27.5 8.43814 21.9 2.83813 15 2.83813ZM20.8 11.3381C20.6125 13.3131 19.8 18.1131 19.3875 20.3256C19.2125 21.2631 18.8625 21.5756 18.5375 21.6131C17.8125 21.6756 17.2625 21.1381 16.5625 20.6756C15.4625 19.9506 14.8375 19.5006 13.775 18.8006C12.5375 17.9881 13.3375 17.5381 14.05 16.8131C14.2375 16.6256 17.4375 13.7131 17.5 13.4506C17.5087 13.4109 17.5075 13.3696 17.4966 13.3304C17.4857 13.2912 17.4654 13.2552 17.4375 13.2256C17.3625 13.1631 17.2625 13.1881 17.175 13.2006C17.0625 13.2256 15.3125 14.3881 11.9 16.6881C11.4 17.0256 10.95 17.2006 10.55 17.1881C10.1 17.1756 9.25 16.9381 8.6125 16.7256C7.825 16.4756 7.2125 16.3381 7.2625 15.9006C7.2875 15.6756 7.6 15.4506 8.1875 15.2131C11.8375 13.6256 14.2625 12.5756 15.475 12.0756C18.95 10.6256 19.6625 10.3756 20.1375 10.3756C20.2375 10.3756 20.475 10.4006 20.625 10.5256C20.75 10.6256 20.7875 10.7631 20.8 10.8631C20.7875 10.9381 20.8125 11.1631 20.8 11.3381Z" fill="#636363"/>
</svg>
