<svg width="14" height="20" viewBox="0 0 14 20" fill="none" xmlns="http://www.w3.org/2000/svg">
<mask id="path-1-inside-1_284_322" fill="white">
<path d="M7 0C10.8617 0 14 3.13984 14 7.02333C14 11.5349 8.85928 17.8928 7.38867 19.6193C7.18132 19.8628 6.81868 19.8628 6.61133 19.6193C5.14072 17.8928 0 11.5349 0 7.02333C0 3.13984 3.13833 0 7 0Z"/>
</mask>
<path d="M7 0C10.8617 0 14 3.13984 14 7.02333C14 11.5349 8.85928 17.8928 7.38867 19.6193C7.18132 19.8628 6.81868 19.8628 6.61133 19.6193C5.14072 17.8928 0 11.5349 0 7.02333C0 3.13984 3.13833 0 7 0Z" fill="white"/>
<path d="M7.38867 19.6193L6.6274 18.9709L7.38867 19.6193ZM6.61133 19.6193L7.3726 18.9709L6.61133 19.6193ZM7 1C10.3071 1 13 3.68982 13 7.02333H15C15 2.58987 11.4163 -1 7 -1V1ZM13 7.02333C13 8.97499 11.8568 11.4826 10.3959 13.8388C8.96451 16.1474 7.34758 18.1254 6.6274 18.9709L8.14994 20.2678C8.90037 19.3868 10.5891 17.3226 12.0957 14.8927C13.5728 12.5104 15 9.58321 15 7.02333H13ZM7.3726 18.9709C6.65242 18.1254 5.03549 16.1474 3.60408 13.8388C2.14317 11.4826 1 8.97499 1 7.02333H-1C-1 9.58321 0.427187 12.5104 1.9043 14.8927C3.4109 17.3226 5.09963 19.3868 5.85006 20.2678L7.3726 18.9709ZM1 7.02333C1 3.68982 3.69292 1 7 1V-1C2.58374 -1 -1 2.58987 -1 7.02333H1ZM6.6274 18.9709C6.81932 18.7456 7.18068 18.7456 7.3726 18.9709L5.85006 20.2678C6.45668 20.98 7.54332 20.98 8.14994 20.2678L6.6274 18.9709Z" fill="#494949" mask="url(#path-1-inside-1_284_322)"/>
</svg>
