<svg width="900" height="710" viewBox="0 0 900 710" fill="none" xmlns="http://www.w3.org/2000/svg">
<path d="M599.206 685.016C686.698 685.016 757.623 664.823 757.623 639.914C757.623 615.005 686.698 594.812 599.206 594.812C511.715 594.812 440.79 615.005 440.79 639.914C440.79 664.823 511.715 685.016 599.206 685.016Z" fill="#5C369A"/>
<path opacity="0.7" d="M599.206 685.016C686.698 685.016 757.623 664.823 757.623 639.914C757.623 615.005 686.698 594.812 599.206 594.812C511.715 594.812 440.79 615.005 440.79 639.914C440.79 664.823 511.715 685.016 599.206 685.016Z" fill="white"/>
<path d="M789.787 305.672C688.951 493.649 533.507 514.266 533.507 514.266C508.468 518.718 483.214 521.865 457.848 523.696C456.248 523.811 454.636 523.915 453.025 524.008C291.822 534.145 199.801 478.677 148.707 423.459C95.9918 366.473 73.548 287.258 90.7109 211.558C120.068 82.1363 245.001 40.3612 245.001 40.3612C272.029 29.6627 301.24 25.4623 329.433 25.0256C404.218 23.8404 471.695 49.0531 471.695 49.0531C491.584 55.8796 511.83 61.6168 532.343 66.2393C574.112 75.451 593.957 73.5172 593.957 73.5172C667.359 61.5918 717.476 73.4028 717.476 73.4028C788.882 88.4888 810.089 142.023 814.216 189.246C817.555 229.604 809.066 270.061 789.787 305.672Z" fill="#5C369A"/>
<path opacity="0.7" d="M789.787 305.672C688.951 493.649 533.507 514.266 533.507 514.266C508.468 518.718 483.214 521.865 457.848 523.696C456.248 523.811 454.636 523.915 453.025 524.008C381.993 528.469 324.412 520.203 277.819 504.826C256.126 497.758 235.248 488.396 215.54 476.9C215.259 476.754 214.968 476.588 214.688 476.411C212.265 474.997 209.874 473.541 207.546 472.075C185.867 458.547 166.081 442.199 148.707 423.459C95.9918 366.473 73.548 287.258 90.7109 211.558C120.068 82.1363 245.001 40.3612 245.001 40.3612C272.029 29.6627 301.24 25.4623 329.433 25.0256C404.218 23.8404 471.695 49.0531 471.695 49.0531C491.584 55.8796 511.83 61.6168 532.343 66.2393C574.112 75.451 593.957 73.5172 593.957 73.5172C667.359 61.5918 717.476 73.4028 717.476 73.4028C788.882 88.4888 810.089 142.023 814.216 189.246C817.555 229.604 809.066 270.061 789.787 305.672Z" fill="white"/>
<path d="M498.901 148.147H199.323V545.041H498.901V148.147Z" fill="#5C369A"/>
<path opacity="0.5" d="M498.901 148.147H199.323V545.041H498.901V148.147Z" fill="white"/>
<path opacity="0.5" d="M474.253 167.599H220.073V410.151H474.253V167.599Z" fill="white"/>
<path d="M349.112 280.594C349.112 280.594 370.516 257.097 387.367 253.208L392.565 262.285V249.808C392.565 249.808 416.204 240.274 443.295 244.173C443.295 244.173 445.499 256.14 439.137 280.635H431.122L438.305 285.46C438.305 285.46 436.829 290.866 434.147 298.643L411.277 332.62L348.249 353.082L349.112 280.594Z" fill="#2F2E41"/>
<path opacity="0.2" d="M355.027 336.124C365.079 317.17 379.238 300.691 394.072 285.324C405.428 273.949 417.527 263.341 430.29 253.572C434.584 250.37 438.929 247.24 443.285 244.132C439.126 247.479 434.843 250.702 430.685 254.071C418.218 264.127 406.315 274.863 395.029 286.229C380.132 301.481 365.921 317.742 355.058 336.135L355.027 336.124Z" fill="black"/>
<path opacity="0.2" d="M399.187 255.88C403.522 262.358 403.751 270.946 402.087 278.359C401.942 270.883 401.817 262.961 399.187 255.88Z" fill="black"/>
<path opacity="0.2" d="M388.792 291.688C396.765 288.413 406.973 288.569 413.938 294.089C406.11 290.263 397.222 290.211 388.792 291.688Z" fill="black"/>
<path d="M462.007 115.406H553.955C555.692 115.406 557.358 116.097 558.586 117.325C559.814 118.553 560.504 120.219 560.504 121.957V171.124C560.501 172.859 559.81 174.523 558.582 175.749C557.354 176.975 555.69 177.664 553.955 177.664H543.102C544.194 181.322 546.156 184.661 548.819 187.395C540.16 186.428 535.825 181.947 533.642 177.664H462.007C460.272 177.664 458.607 176.975 457.379 175.749C456.151 174.523 455.46 172.859 455.458 171.124V121.946C455.46 120.211 456.151 118.547 457.379 117.321C458.607 116.095 460.272 115.406 462.007 115.406V115.406Z" fill="#5C369A"/>
<path d="M485.646 336.218H476.114L485.657 340.761C480.199 367.346 453.524 393.287 453.524 393.287L439.262 385.51L447.006 397.165C444.418 403.653 432.037 410.14 432.037 410.14H373.105L356.243 341.395C355.807 339.607 355.391 337.861 355.027 336.114C384.82 298.591 405.892 296.917 405.892 296.917L413.959 310.267V294.089C469.055 280.511 495.044 286.936 495.044 286.936C496.312 318.065 485.646 336.218 485.646 336.218Z" fill="#5C369A"/>
<path opacity="0.3" d="M485.646 336.218H476.114L485.657 340.761C480.199 367.346 453.524 393.287 453.524 393.287L439.262 385.51L447.006 397.165C444.418 403.653 432.037 410.14 432.037 410.14H373.105L356.243 341.395C355.807 339.607 355.391 337.861 355.027 336.114C384.82 298.591 405.892 296.917 405.892 296.917L413.959 310.267V294.089C469.055 280.511 495.044 286.936 495.044 286.936C496.312 318.065 485.646 336.218 485.646 336.218Z" fill="white"/>
<path opacity="0.3" d="M368.531 389.451C389.902 367.508 412.53 346.825 436.299 327.505C454.751 312.596 474.159 298.321 495.013 286.957L486.322 292.291C483.848 293.746 480.261 296.294 477.808 297.905C438.524 324.76 403.044 356.814 368.531 389.471V389.451Z" fill="white"/>
<path opacity="0.3" d="M425.072 302.199C432.349 310.194 433.606 322.65 428.928 332.267C428.263 333.629 427.463 334.929 426.693 336.218C427.213 334.794 427.879 333.452 428.346 332.059C430.147 327.173 430.789 321.935 430.221 316.759C429.653 311.583 427.89 306.609 425.072 302.23V302.199Z" fill="white"/>
<path opacity="0.3" d="M458.233 360.536C445.925 350.638 427.182 351.865 412.337 353.602C410.081 353.924 407.825 354.298 405.549 354.589C407.763 354.007 409.998 353.55 412.233 352.967C426.86 350.202 446.902 349.193 458.233 360.536V360.536Z" fill="white"/>
<path opacity="0.3" d="M375.568 331.758C382.107 338.328 384.249 348.133 384.311 357.137C384.18 362.228 383.461 367.286 382.17 372.212C381.546 374.146 380.953 376.08 380.298 377.983C380.673 375.997 381.13 374.042 381.546 372.077C383.978 358.623 384.176 343.173 375.568 331.778V331.758Z" fill="white"/>
<path opacity="0.3" d="M369.487 395.408C383.115 392.777 402.305 391.551 413.959 400.253C412.321 399.305 410.603 398.505 408.823 397.862C403.522 395.907 397.825 395.273 392.191 394.93C384.617 394.58 377.029 394.739 369.477 395.408H369.487Z" fill="white"/>
<path d="M178.574 246.721C178.574 246.721 172.098 283.037 186.36 307.688H205.976L190.238 314.166C190.238 314.166 200.633 344.619 234.325 344.962L231.082 253.551C231.082 253.551 213.596 245.421 178.574 246.721Z" fill="#5C369A"/>
<path d="M178.574 246.721C178.574 246.721 172.098 283.037 186.36 307.688H205.976L190.238 314.166C190.238 314.166 200.633 344.619 234.325 344.962L231.082 253.551C231.082 253.551 213.596 245.421 178.574 246.721Z" fill="#5C369A"/>
<path opacity="0.3" d="M178.574 246.721C178.574 246.721 172.098 283.037 186.36 307.688H205.976L190.238 314.166C190.238 314.166 200.633 344.619 234.325 344.962L231.082 253.551C231.082 253.551 213.596 245.421 178.574 246.721Z" fill="white"/>
<path opacity="0.2" d="M178.574 246.72C195.404 261.401 211.756 276.82 227.433 292.769C210.602 278.088 194.25 262.669 178.574 246.72V246.72Z" fill="black"/>
<path opacity="0.2" d="M195.435 299.901C206.153 296.46 217.817 294.983 228.971 296.928C217.723 296.782 206.537 298.196 195.435 299.901Z" fill="black"/>
<path d="M174.946 319.188C174.946 319.188 175.497 402 239.294 408.654L243.982 354.839L231.05 325.426C226.093 323.49 221.012 321.885 215.842 320.622L213.617 328.41L212.203 320.622C212.203 320.622 193.356 316.464 174.946 319.188Z" fill="#5C369A"/>
<path d="M174.946 319.188C174.946 319.188 175.497 402 239.294 408.654L243.982 354.839L231.05 325.426C226.093 323.49 221.012 321.885 215.842 320.622L213.617 328.41L212.203 320.622C212.203 320.622 193.356 316.464 174.946 319.188Z" fill="#2F2E41"/>
<path opacity="0.2" d="M174.946 319.188C194.084 336.467 213.742 354.995 233.379 371.578L237.423 374.905C214.781 358.53 194.489 339.087 174.946 319.188Z" fill="black"/>
<path opacity="0.2" d="M213.617 394.119C219.355 387.714 228.171 384.834 236.487 383.482C228.67 386.602 220.509 389.138 213.617 394.119Z" fill="black"/>
<path opacity="0.2" d="M231.341 370.206C228.691 361.171 226.144 345.939 232.672 338.193C231.937 339.336 231.38 340.584 231.019 341.895C228.68 351.138 230.364 360.859 231.341 370.206Z" fill="black"/>
<path opacity="0.2" d="M193.356 360.536C200.498 356.752 210.197 354.101 217.577 358.613C209.594 355.899 201.194 358.478 193.356 360.536Z" fill="black"/>
<path d="M339.184 167.568C339.184 167.568 359.278 182.592 361.659 199.092C361.659 199.092 349.184 180.856 329.662 186.408L330.025 173.484C330.025 173.484 333.55 172.143 339.184 167.568Z" fill="#2F2E41"/>
<path d="M672.526 398.205C672.37 427.784 659.937 624.131 659.937 624.131C658.742 624.35 657.453 624.537 656.112 624.693C641.495 626.315 618.844 624.131 618.844 624.131H590.984L579.278 406.179L578.696 395.408L602.606 353.082L655.779 393.287L672.526 398.205Z" fill="#2F2E41"/>
<path opacity="0.2" d="M672.526 398.205C672.37 427.784 659.937 624.131 659.937 624.131C658.742 624.35 657.453 624.537 656.112 624.693L653.232 557.986L645.446 427.742C642.327 399.535 597.626 403.362 579.278 406.148L578.696 395.377L602.606 353.051L655.779 393.256L672.526 398.205Z" fill="black"/>
<path opacity="0.2" d="M579.985 419.279C589.643 415.36 593.323 430.071 594.664 436.954C595.35 440.52 596.098 446.312 596.649 449.94C601.307 481.911 608.573 534.831 612.846 566.937C614.561 579.85 617.919 606.061 619.509 619.005C612.232 571.533 603.916 510.877 597.543 463.051C596.982 458.798 595.527 447.653 594.986 443.525C594.05 436.622 593.167 429.26 589.549 423.168C587.532 419.924 583.821 417.387 579.985 419.29V419.279Z" fill="black"/>
<path d="M699.918 325.842L655.841 393.277C646.178 390.987 636.314 389.65 626.391 389.284C617.158 389.004 607.943 390.262 599.123 393.006C585.723 397.04 577.293 394.722 576.742 394.555L571.544 340.075C570.244 342.674 561.148 343.974 561.148 343.974C567.635 315.434 555.951 298.57 555.951 298.57C563.737 244.101 569.756 241.501 569.756 241.501C574.475 227.237 607.336 216.455 607.336 216.455L650.061 215.54C674.147 224.585 683.14 230.886 683.14 230.886C702.683 239.713 699.907 255.121 699.907 255.121C706.394 301.201 699.918 325.842 699.918 325.842Z" fill="#5C369A"/>
<path d="M640.258 177.331C640.258 186.324 637.514 194.455 633.096 200.204C628.938 205.715 623.22 209.083 616.931 209.083C616.008 209.087 615.086 209.01 614.176 208.855C602.575 207.035 593.583 193.613 593.583 177.331C593.583 159.781 604.04 145.558 616.931 145.558C629.821 145.558 640.258 159.781 640.258 177.331Z" fill="#F9B499"/>
<path d="M646.87 188.352L643.491 194.59C644.125 209.894 633.096 200.236 633.096 200.236C640.196 188.799 636.942 183.6 636.942 183.6C627.15 186.564 631.183 170.251 631.183 170.251C631.183 155.986 619.509 158.575 619.509 158.575C605.246 162.463 601.545 153.48 601.545 153.48C599.134 156.163 596.254 162.588 596.254 162.588C589.861 156.163 590.984 140.359 590.984 140.359L596.181 141.649C594.882 136.45 598.77 132.572 598.77 132.572C601.369 139.06 613.032 137.771 613.032 137.771L642.867 140.37C661.018 145.568 650.643 165.011 650.643 165.011C664.896 175.387 646.87 188.352 646.87 188.352Z" fill="#2F2E41"/>
<path opacity="0.2" d="M636.942 183.548C627.15 186.512 631.183 170.199 631.183 170.199C631.183 155.934 619.509 158.523 619.509 158.523C605.246 162.411 601.545 153.428 601.545 153.428C599.134 156.111 596.254 162.536 596.254 162.536C590.578 156.87 590.828 143.822 590.952 140.921C590.952 140.899 590.961 140.878 590.977 140.862C590.992 140.846 591.014 140.838 591.036 140.838C591.058 140.838 591.079 140.846 591.094 140.862C591.11 140.878 591.119 140.899 591.119 140.921C591.722 143.073 594.113 150.933 597.46 152.046C597.46 152.046 597.46 144.269 600.059 142.969C600.059 142.969 602.647 157.234 618.209 155.944C618.209 155.944 631.817 151.973 636.693 160.436C636.693 160.436 639.593 163.347 636.693 170.677C636.693 170.667 633.636 180.024 636.942 183.548Z" fill="black"/>
<path d="M646.399 190.162C647.746 186.078 646.358 181.949 643.299 180.94C640.24 179.931 636.669 182.424 635.322 186.509C633.975 190.593 635.363 194.722 638.422 195.731C641.481 196.74 645.053 194.247 646.399 190.162Z" fill="#F9B499"/>
<path d="M623.522 230.813C605.849 231.78 611.733 220.749 611.733 220.749C612.378 216.216 613.812 211.943 614.166 208.844C615.076 209 615.997 209.076 616.92 209.073C623.158 209.073 628.896 205.704 633.085 200.194C633.564 203.313 635.934 209.759 637.056 212.67C637.647 214.13 637.94 215.692 637.919 217.266C637.587 227.84 623.522 230.813 623.522 230.813Z" fill="#F9B499"/>
<path d="M614.165 208.875L612.377 217.536C612.377 217.536 619.571 223.535 634.426 205.288L633.085 200.225C633.085 200.225 625.684 211.236 614.165 208.875Z" fill="#F7A48B"/>
<path d="M616.92 230.46C616.92 230.46 607.835 232.456 607.835 241.532C607.835 241.532 597.668 218.378 613.771 211.152C613.771 211.152 613.022 215.592 611.691 220.78C611.733 220.78 607.835 228.463 616.92 230.46Z" fill="#5C369A"/>
<path opacity="0.3" d="M616.92 230.46C616.92 230.46 607.835 232.456 607.835 241.532C607.835 241.532 597.668 218.378 613.771 211.152C613.771 211.152 613.022 215.592 611.691 220.78C611.733 220.78 607.835 228.463 616.92 230.46Z" fill="white"/>
<path opacity="0.2" d="M568.935 264.884C569.392 285.678 569.257 307.512 571.014 328.129C571.191 329.522 571.336 330.926 571.482 332.288C569.143 321.246 568.644 309.893 568.238 298.643C568.02 287.373 568.103 276.092 568.893 264.843L568.935 264.884Z" fill="black"/>
<path opacity="0.2" d="M699.897 325.852L655.82 393.287C646.157 390.998 636.293 389.66 626.37 389.294C617.145 389.013 607.937 390.267 599.123 393.006C585.723 397.04 577.293 394.722 576.742 394.555C596.202 390.667 624.561 377.005 624.561 377.005C641.194 368.552 640.975 354.735 640.975 354.735C645.518 329.169 656.205 320.841 656.205 320.841C688.982 332.132 699.616 326.049 699.897 325.852Z" fill="black"/>
<path opacity="0.2" d="M699.918 325.842C689.522 328.451 689.065 326.881 689.065 326.881C698.941 294.224 686.747 264.863 686.747 264.863C677.391 238.871 642.275 231.998 642.275 231.998C646.135 227.205 648.813 221.57 650.092 215.55C674.179 224.596 683.171 230.896 683.171 230.896C702.714 239.723 699.939 255.132 699.939 255.132C706.394 301.201 699.918 325.842 699.918 325.842Z" fill="black"/>
<path d="M590.318 624.162C590.318 624.162 554.548 646.131 564.714 654.168C565.965 655.1 567.491 655.587 569.049 655.551L627.597 656.851C627.597 656.851 635.071 655.291 632.483 646.214L629.239 623.518L590.318 624.162Z" fill="#5C369A"/>
<path opacity="0.2" d="M590.318 624.162C590.318 624.162 554.548 646.131 564.714 654.168C565.965 655.1 567.491 655.587 569.049 655.551L627.597 656.851C627.597 656.851 635.071 655.291 632.483 646.214L629.239 623.518L590.318 624.162Z" fill="black"/>
<path d="M563.331 332.236C563.125 336.238 562.391 340.195 561.148 344.005C530.024 353.082 517.061 283.037 517.061 283.037C513.163 270.072 502.788 266.163 502.788 266.163C485.937 258.376 492.393 250.568 492.393 250.568C493.799 247.601 496.282 245.281 499.337 244.08C511.645 239.547 530.004 257.045 530.004 257.045C532.291 257.814 533.288 254.747 533.715 252.096C533.757 251.823 533.89 251.572 534.093 251.384C534.295 251.196 534.555 251.081 534.831 251.06C535.106 251.038 535.381 251.11 535.611 251.264C535.84 251.418 536.011 251.645 536.095 251.909C537.977 257.866 535.191 267.421 535.191 267.421C532.602 277.818 535.191 279.097 535.191 279.097L555.982 298.55C561.534 308.87 564.08 320.541 563.331 332.236Z" fill="#F9B499"/>
<path d="M563.331 332.236C563.125 336.238 562.391 340.195 561.148 344.005C530.024 353.082 517.061 283.037 517.061 283.037C513.163 270.072 502.788 266.163 502.788 266.163C485.937 258.375 492.393 250.567 492.393 250.567C493.799 247.6 496.282 245.281 499.337 244.08C499.337 244.08 489.804 253.156 502.767 259.675C502.767 259.675 513.059 264.811 521.479 278.047C525.509 284.538 528.222 291.759 529.463 299.298C531.334 309.986 538.258 333.307 562.916 332.308L563.331 332.236Z" fill="#F7A48B"/>
<path d="M325.774 174.098C338.307 174.098 348.467 158.997 348.467 140.37C348.467 121.742 338.307 106.642 325.774 106.642C313.241 106.642 303.081 121.742 303.081 140.37C303.081 158.997 313.241 174.098 325.774 174.098Z" fill="#F9B499"/>
<path d="M365.329 122.206C364.961 125.778 364.086 129.279 362.73 132.603C357.792 144.185 348.467 144.04 348.467 144.04C348.569 140.301 348.374 136.561 347.885 132.853C347.303 131.813 340.681 128.694 340.681 128.694C340.681 128.694 328.394 145.402 303.413 146.119C303.875 150.904 305.185 155.569 307.28 159.895L310.451 165.239C311.168 180.96 293.652 186.324 286.541 187.832C283.335 188.523 280.202 189.519 277.185 190.806C236.466 208.304 231.767 250.619 231.767 250.619C221.372 224.627 243.442 209.104 243.442 209.104L266.779 189.652C288.828 171.498 281.052 152.035 281.052 152.035C268.079 122.206 287.539 109.241 287.539 109.241C321.252 83.2487 340.619 106.642 340.619 106.642C366.441 98.865 365.329 122.206 365.329 122.206Z" fill="#2F2E41"/>
<path d="M336.221 206.775C333.539 210.237 328.768 213.211 320.628 210.466C316.999 209.201 313.679 207.182 310.888 204.54C306.407 200.381 299.505 192.698 298.413 183.746C298.413 183.746 311.439 178.475 310.545 165.271C310.545 165.271 318.175 176.822 330.119 173.526V185.555C330.119 185.555 336.034 185.701 338.436 192.926C339.227 195.24 339.439 197.712 339.053 200.127C338.667 202.541 337.695 204.824 336.221 206.775V206.775Z" fill="#F9B499"/>
<path d="M330.026 173.484V184.401C330.026 184.401 316.72 182.051 313.788 168.993C313.788 168.993 321.969 176.749 330.026 173.484Z" fill="#F7A48B"/>
<path d="M356.243 341.406L373.104 410.151H239.533C237.634 399.781 236.881 389.234 237.287 378.7C237.975 360.077 242.903 341.856 251.695 325.426C254.7 319.718 257.787 313.001 258.972 307.657C258.972 307.657 247.028 313.386 237.63 311.099C235.8 310.708 234.076 309.923 232.579 308.8C231.082 307.676 229.847 306.239 228.96 304.59C228.96 304.59 223.96 284.306 231.736 250.588C231.736 250.588 236.934 207.493 277.154 190.774C279.317 189.765 281.568 188.957 283.88 188.362C284.743 188.144 285.637 187.946 286.531 187.801C290.627 186.955 294.589 185.556 298.309 183.642C299.463 192.625 306.355 200.329 310.783 204.436C313.573 207.08 316.894 209.1 320.524 210.362C328.705 213.107 333.477 210.134 336.117 206.671C337.583 204.71 338.545 202.419 338.919 199.999C339.292 197.578 339.066 195.103 338.259 192.791C336.18 186.678 331.657 185.628 330.306 185.462C330.223 185.462 330.192 185.316 330.306 185.295C333.425 184.256 355.879 178.017 369.133 214.188L376.909 268.669L352.407 286.957C352.407 286.957 348.945 307.689 355.079 336.145C355.39 337.902 355.806 339.618 356.243 341.406Z" fill="#5C369A"/>
<path opacity="0.2" d="M254.742 261.931C253.515 274.356 249.336 280.24 246.779 282.725C244.332 285.034 242.197 287.652 240.427 290.513C232.111 304.455 237.641 311.12 237.641 311.12C235.81 310.729 234.087 309.944 232.589 308.82C231.092 307.696 229.858 306.26 228.971 304.611C228.971 304.611 223.971 284.326 231.747 250.609C231.747 250.609 236.945 207.514 277.165 190.795C279.328 189.786 281.579 188.978 283.891 188.383C251.665 202.471 253.161 238.985 254.544 250.765C255.017 254.469 255.083 258.213 254.742 261.931V261.931Z" fill="black"/>
<path d="M228.971 304.632C228.971 304.632 228.711 334.284 239.304 360.547C239.304 360.547 241.81 344.535 251.696 325.467C254.963 319.925 257.414 313.941 258.973 307.699C258.973 307.699 237.87 318.429 228.971 304.632Z" fill="#F9B499"/>
<path d="M237.641 311.13C237.641 311.13 238.046 334.908 243.982 343.361C241.829 348.915 240.261 354.678 239.304 360.557C239.304 360.557 228.794 337.902 228.971 304.632C228.971 304.632 230.551 309.394 237.641 311.13Z" fill="#F7A48B"/>
<path opacity="0.2" d="M258.983 307.689C258.983 307.689 275.844 286.895 284.919 271.372C284.919 271.372 286.999 284.004 277.955 309.279C276.501 313.356 274.789 317.335 272.83 321.194C267.632 331.425 252.943 365.839 265.116 410.151H239.533C239.533 410.151 234.335 381.091 239.533 359.299C241.278 350.053 244.213 341.071 248.265 332.579L252.288 324.459C252.288 324.459 257.683 314.166 258.983 307.689Z" fill="black"/>
<g opacity="0.2">
<path d="M327.718 403.019C327.616 403.021 327.516 402.996 327.427 402.946C288.693 383.576 277.903 336.831 277.799 336.405C277.765 336.236 277.797 336.06 277.891 335.914C277.984 335.769 278.13 335.665 278.298 335.625C278.381 335.607 278.467 335.605 278.551 335.621C278.635 335.636 278.715 335.668 278.787 335.714C278.858 335.761 278.92 335.821 278.968 335.891C279.016 335.962 279.05 336.041 279.067 336.124C279.171 336.582 289.837 382.744 328.009 401.833C328.162 401.909 328.279 402.043 328.333 402.205C328.388 402.366 328.376 402.543 328.3 402.696C328.241 402.797 328.155 402.88 328.053 402.937C327.951 402.994 327.835 403.022 327.718 403.019V403.019Z" fill="black"/>
</g>
<g opacity="0.2">
<path d="M321.22 368.054C321.122 368.054 321.025 368.029 320.94 367.981C283.433 349.869 280.564 318.803 280.532 318.491C280.525 318.406 280.535 318.319 280.562 318.238C280.589 318.156 280.631 318.081 280.688 318.016C280.744 317.951 280.812 317.898 280.889 317.86C280.966 317.822 281.05 317.8 281.135 317.794C281.306 317.783 281.474 317.838 281.604 317.949C281.734 318.06 281.816 318.217 281.832 318.387C281.832 318.689 284.691 349.048 321.501 366.816C321.578 366.853 321.646 366.904 321.703 366.968C321.76 367.031 321.803 367.105 321.831 367.185C321.859 367.265 321.871 367.35 321.866 367.435C321.861 367.52 321.84 367.603 321.803 367.679C321.752 367.791 321.67 367.886 321.567 367.953C321.464 368.019 321.343 368.054 321.22 368.054Z" fill="black"/>
</g>
<g opacity="0.2">
<path d="M326.418 347.259C326.303 347.258 326.189 347.226 326.089 347.168C325.989 347.109 325.905 347.026 325.847 346.927C325.804 346.852 325.777 346.77 325.767 346.686C325.757 346.601 325.763 346.515 325.786 346.433C325.81 346.35 325.849 346.273 325.902 346.207C325.955 346.14 326.021 346.084 326.096 346.043C343.602 336.01 340.12 310.641 340.088 310.381C340.075 310.297 340.079 310.211 340.099 310.129C340.119 310.046 340.155 309.968 340.205 309.9C340.255 309.831 340.319 309.773 340.391 309.729C340.464 309.685 340.545 309.656 340.629 309.643C340.8 309.619 340.973 309.664 341.111 309.767C341.249 309.87 341.341 310.024 341.367 310.194C341.367 310.454 345.016 336.696 326.741 347.166C326.644 347.225 326.532 347.258 326.418 347.259V347.259Z" fill="black"/>
</g>
<g opacity="0.2">
<path d="M338.893 343.516C338.772 343.516 338.654 343.483 338.551 343.42C338.448 343.357 338.364 343.267 338.309 343.159C338.254 343.051 338.23 342.931 338.24 342.81C338.249 342.69 338.292 342.574 338.363 342.477C345.432 332.61 343.914 320.851 343.903 320.737C343.88 320.566 343.924 320.392 344.027 320.254C344.13 320.116 344.284 320.024 344.454 319.998C344.539 319.985 344.626 319.99 344.709 320.011C344.793 320.032 344.871 320.071 344.939 320.123C345.007 320.176 345.063 320.241 345.105 320.316C345.147 320.392 345.173 320.474 345.182 320.56C345.255 321.059 346.793 332.932 339.413 343.236C339.355 343.321 339.278 343.391 339.187 343.44C339.097 343.489 338.996 343.515 338.893 343.516V343.516Z" fill="black"/>
</g>
<g opacity="0.2">
<path d="M284.92 272.017C284.828 272.016 284.737 271.996 284.652 271.959C284.568 271.921 284.493 271.866 284.431 271.798C284.32 271.668 284.264 271.499 284.275 271.328C284.287 271.157 284.365 270.997 284.493 270.883C284.587 270.8 294.296 261.952 297.675 240.285C297.688 240.201 297.717 240.12 297.761 240.047C297.805 239.974 297.863 239.911 297.931 239.861C298 239.811 298.078 239.774 298.161 239.754C298.243 239.734 298.329 239.731 298.413 239.744C298.497 239.757 298.578 239.786 298.651 239.83C298.723 239.874 298.787 239.932 298.837 240.001C298.887 240.069 298.923 240.147 298.943 240.23C298.963 240.313 298.967 240.398 298.954 240.482C295.502 262.659 285.762 271.486 285.346 271.85C285.289 271.905 285.223 271.948 285.149 271.976C285.076 272.005 284.998 272.018 284.92 272.017V272.017Z" fill="black"/>
</g>
<g opacity="0.2">
<path d="M325.577 218.919C309.879 218.919 300.773 205.746 300.679 205.6C300.63 205.531 300.596 205.453 300.578 205.37C300.56 205.287 300.558 205.202 300.574 205.118C300.589 205.035 300.621 204.955 300.668 204.885C300.715 204.814 300.775 204.753 300.846 204.706C300.916 204.657 300.995 204.622 301.079 204.604C301.162 204.586 301.249 204.584 301.333 204.6C301.417 204.615 301.497 204.647 301.569 204.694C301.641 204.741 301.702 204.802 301.75 204.873C301.844 205.018 311.397 218.805 327.666 217.547C327.837 217.533 328.006 217.587 328.137 217.699C328.268 217.81 328.349 217.968 328.363 218.139C328.376 218.31 328.322 218.48 328.211 218.61C328.099 218.741 327.941 218.822 327.77 218.836C327.022 218.888 326.294 218.919 325.577 218.919Z" fill="black"/>
</g>
<g opacity="0.2">
<path d="M330.026 222.204C329.895 222.206 329.766 222.167 329.658 222.092C329.55 222.018 329.468 221.912 329.423 221.788C329.393 221.709 329.379 221.625 329.381 221.54C329.384 221.456 329.403 221.372 329.438 221.295C329.472 221.218 329.522 221.148 329.584 221.09C329.645 221.032 329.718 220.987 329.797 220.957C334.948 218.542 339.022 214.305 341.232 209.063C341.266 208.985 341.315 208.914 341.376 208.855C341.438 208.796 341.51 208.75 341.589 208.719C341.668 208.688 341.753 208.673 341.838 208.675C341.923 208.677 342.007 208.695 342.085 208.73C342.164 208.763 342.235 208.811 342.295 208.872C342.355 208.933 342.403 209.005 342.435 209.084C342.467 209.164 342.482 209.249 342.481 209.334C342.48 209.42 342.462 209.504 342.428 209.582C340.114 215.169 335.762 219.667 330.255 222.163C330.182 222.192 330.104 222.207 330.026 222.204Z" fill="black"/>
</g>
<g opacity="0.2">
<path d="M354.954 224.024C354.837 224.023 354.722 223.991 354.621 223.93C347.823 219.855 350.318 206.931 350.463 206.391C350.511 206.236 350.614 206.104 350.752 206.02C350.891 205.937 351.056 205.908 351.215 205.939C351.374 205.97 351.516 206.059 351.613 206.188C351.71 206.318 351.756 206.479 351.742 206.64C351.742 206.765 349.309 219.21 355.328 222.818C355.446 222.893 355.536 223.004 355.586 223.135C355.636 223.265 355.643 223.409 355.606 223.543C355.569 223.678 355.49 223.797 355.38 223.884C355.27 223.97 355.135 224.019 354.996 224.024H354.954Z" fill="black"/>
</g>
<path opacity="0.5" d="M232.672 420.34C232.672 420.34 227.609 413.665 221.237 420.34C220.34 421.732 219.889 423.364 219.943 425.019C219.997 426.674 220.553 428.273 221.538 429.604C222.11 430.36 222.786 431.031 223.544 431.6L232.661 438.795L241.279 431.475C243.321 429.788 244.663 427.401 245.042 424.779C245.365 422.191 244.72 419.269 240.822 417.98C240.822 417.959 235.634 415.339 232.672 420.34Z" fill="white"/>
<path opacity="0.5" d="M410.341 518.914C410.341 518.914 405.279 512.239 398.906 518.914C398.009 520.302 397.556 521.931 397.606 523.584C397.656 525.237 398.207 526.835 399.187 528.167C399.759 528.923 400.435 529.595 401.193 530.163L410.31 537.358L418.918 530.007C420.958 528.318 422.298 525.932 422.681 523.312C423.003 520.712 422.359 517.791 418.46 516.502C418.491 516.512 413.304 513.913 410.341 518.914Z" fill="white"/>
<path opacity="0.5" d="M275.844 426.36C275.844 424.178 275.198 422.045 273.986 420.231C272.774 418.417 271.051 417.003 269.036 416.168C267.02 415.333 264.803 415.115 262.663 415.541C260.523 415.966 258.558 417.017 257.016 418.56C255.473 420.102 254.423 422.068 253.997 424.208C253.572 426.348 253.79 428.566 254.625 430.581C255.46 432.597 256.873 434.32 258.687 435.532C260.501 436.744 262.633 437.391 264.815 437.391C265.985 437.392 267.147 437.203 268.256 436.83L275.325 438.795V429.718C275.673 428.633 275.848 427.5 275.844 426.36Z" fill="white"/>
<path opacity="0.5" d="M310.586 417.283L310.108 417.959L295.294 438.795V424.416L295.066 424.249L285.127 417.262L309.983 417.283H310.586Z" fill="white"/>
<path opacity="0.5" d="M310.586 417.283L310.108 417.959L295.294 424.873V424.416L295.065 424.249L309.983 417.283H310.586Z" fill="white"/>
<path opacity="0.5" d="M303.84 445.168H223.191C221.469 445.168 220.073 446.564 220.073 448.287V449.836C220.073 451.559 221.469 452.955 223.191 452.955H303.84C305.562 452.955 306.958 451.559 306.958 449.836V448.287C306.958 446.564 305.562 445.168 303.84 445.168Z" fill="white"/>
<path opacity="0.5" d="M346.638 459.443H223.191C221.469 459.443 220.073 460.839 220.073 462.562V464.111C220.073 465.834 221.469 467.23 223.191 467.23H346.638C348.36 467.23 349.757 465.834 349.757 464.111V462.562C349.757 460.839 348.36 459.443 346.638 459.443Z" fill="white"/>
<path opacity="0.5" d="M404.998 490.572H223.191C221.469 490.572 220.073 491.968 220.073 493.691V495.24C220.073 496.962 221.469 498.359 223.191 498.359H404.998C406.721 498.359 408.117 496.962 408.117 495.24V493.691C408.117 491.968 406.721 490.572 404.998 490.572Z" fill="white"/>
<path opacity="0.5" d="M460.76 476.296H223.191C221.469 476.296 220.073 477.693 220.073 479.415V480.965C220.073 482.687 221.469 484.084 223.191 484.084H460.76C462.482 484.084 463.878 482.687 463.878 480.965V479.415C463.878 477.693 462.482 476.296 460.76 476.296Z" fill="white"/>
<path opacity="0.5" d="M458.233 417.262V438.795L466.477 430.903L474.263 438.795V417.283L458.233 417.262Z" fill="white"/>
<path opacity="0.5" d="M228.826 537.368H237.225V528.489H242.953V537.368H250.698V526.597L240.729 515.836L228.826 526.597V537.368Z" fill="white"/>
<path opacity="0.5" d="M307.426 536.911L302.363 531.848C304.161 529.832 305.104 527.196 304.993 524.497C304.881 521.798 303.724 519.249 301.766 517.388C299.808 515.528 297.202 514.503 294.502 514.53C291.801 514.557 289.217 515.634 287.297 517.533C285.376 519.432 284.27 522.004 284.213 524.705C284.155 527.405 285.151 530.022 286.989 532.001C288.826 533.981 291.362 535.167 294.059 535.309C296.756 535.451 299.403 534.538 301.438 532.762L306.511 537.826C306.633 537.945 306.798 538.012 306.968 538.012C307.139 538.012 307.304 537.945 307.426 537.826C307.545 537.703 307.612 537.539 307.612 537.368C307.612 537.197 307.545 537.033 307.426 536.911V536.911ZM285.595 524.944C285.59 523.453 285.952 521.984 286.649 520.667C287.345 519.349 288.355 518.223 289.59 517.387C290.824 516.552 292.245 516.033 293.727 515.877C295.21 515.72 296.708 515.931 298.089 516.49C299.471 517.049 300.694 517.94 301.65 519.083C302.606 520.227 303.267 521.588 303.573 523.047C303.879 524.505 303.822 526.017 303.406 527.449C302.99 528.88 302.229 530.187 301.189 531.255C301.123 531.287 301.064 531.329 301.012 531.38C300.975 531.424 300.943 531.473 300.918 531.525C299.632 532.749 298.016 533.567 296.269 533.88C294.522 534.193 292.722 533.987 291.092 533.286C289.461 532.585 288.072 531.421 287.097 529.938C286.122 528.455 285.603 526.719 285.606 524.944H285.595Z" fill="white"/>
<path opacity="0.5" d="M358.624 515.212H344.787C342.52 515.212 340.681 517.051 340.681 519.319V533.158C340.681 535.426 342.52 537.264 344.787 537.264H358.624C360.892 537.264 362.73 535.426 362.73 533.158V519.319C362.73 517.051 360.892 515.212 358.624 515.212Z" fill="white"/>
<path opacity="0.5" d="M356.233 525.589H352.376V521.388H351.076V525.589H347.188V526.888H351.076V531.089H352.376V526.888H356.233V525.589Z" fill="white"/>
<g opacity="0.5">
<path d="M463.233 528.833C461.694 528.833 460.188 528.376 458.908 527.52C457.627 526.664 456.629 525.448 456.04 524.025C455.451 522.602 455.296 521.037 455.597 519.526C455.897 518.015 456.639 516.628 457.728 515.539C458.817 514.45 460.204 513.708 461.714 513.407C463.225 513.107 464.79 513.261 466.213 513.851C467.636 514.44 468.852 515.438 469.707 516.719C470.563 517.999 471.02 519.505 471.02 521.045C471.017 523.11 470.196 525.089 468.736 526.549C467.277 528.008 465.298 528.83 463.233 528.833V528.833ZM463.233 514.568C461.95 514.568 460.696 514.949 459.629 515.662C458.562 516.375 457.73 517.389 457.24 518.575C456.749 519.761 456.621 521.066 456.872 522.325C457.123 523.584 457.742 524.74 458.65 525.647C459.559 526.554 460.715 527.171 461.974 527.42C463.233 527.669 464.538 527.539 465.723 527.046C466.908 526.554 467.921 525.721 468.632 524.652C469.344 523.584 469.722 522.329 469.72 521.045C469.718 519.326 469.033 517.679 467.817 516.464C466.6 515.25 464.952 514.568 463.233 514.568V514.568Z" fill="white"/>
</g>
<g opacity="0.5">
<path d="M476.207 537.264H474.907V536.557C474.907 535.103 474.331 533.709 473.303 532.679C472.276 531.65 470.883 531.071 469.429 531.068H456.507C455.053 531.071 453.66 531.65 452.633 532.679C451.606 533.709 451.029 535.103 451.029 536.557V537.264H449.729V536.557C449.732 534.76 450.447 533.038 451.718 531.767C452.988 530.496 454.711 529.781 456.507 529.779H469.429C471.227 529.779 472.951 530.493 474.222 531.764C475.493 533.035 476.207 534.76 476.207 536.557V537.264Z" fill="white"/>
</g>
<path opacity="0.2" d="M362.73 132.582C357.792 144.165 348.467 144.019 348.467 144.019C348.569 140.281 348.374 136.54 347.885 132.832C347.303 131.792 340.681 128.673 340.681 128.673C340.681 128.673 328.393 145.381 303.413 146.098C303.413 146.098 321.969 135.036 330.026 125.377C330.026 125.377 339.381 109.657 349.112 127.592C349.112 127.613 351.045 136.471 362.73 132.582Z" fill="black"/>
<path opacity="0.2" d="M296.594 151.588C296.594 151.588 294.515 178.059 283.891 188.393C283.891 188.393 311.345 184.931 310.451 165.239C307.496 161.162 305.424 156.512 304.37 151.588H296.594Z" fill="black"/>
<path d="M423.211 58.6494H361.877C360.719 58.6494 359.609 59.1095 358.79 59.9284C357.971 60.7473 357.511 61.858 357.511 63.0162V95.7875C357.511 96.9456 357.971 98.0563 358.79 98.8752C359.609 99.6941 360.719 100.154 361.877 100.154H369.154C368.429 102.595 367.119 104.822 365.339 106.642C371.119 105.997 374.009 103.013 375.464 100.154H423.221C424.379 100.154 425.49 99.6941 426.308 98.8752C427.127 98.0563 427.587 96.9456 427.587 95.7875V63.0162C427.587 62.4418 427.474 61.8732 427.254 61.3427C427.034 60.8122 426.711 60.3304 426.305 59.9247C425.898 59.5191 425.416 59.1977 424.885 58.9788C424.354 58.76 423.785 58.6481 423.211 58.6494V58.6494Z" fill="#5C369A"/>
<path opacity="0.5" d="M369.861 82.0012C371.652 82.0012 373.104 80.5488 373.104 78.7573C373.104 76.9658 371.652 75.5134 369.861 75.5134C368.07 75.5134 366.618 76.9658 366.618 78.7573C366.618 80.5488 368.07 82.0012 369.861 82.0012Z" fill="white"/>
<path opacity="0.5" d="M391.91 82.0012C393.701 82.0012 395.153 80.5488 395.153 78.7573C395.153 76.9658 393.701 75.5134 391.91 75.5134C390.119 75.5134 388.667 76.9658 388.667 78.7573C388.667 80.5488 390.119 82.0012 391.91 82.0012Z" fill="white"/>
<path opacity="0.5" d="M413.959 82.0012C415.75 82.0012 417.202 80.5488 417.202 78.7573C417.202 76.9658 415.75 75.5134 413.959 75.5134C412.167 75.5134 410.715 76.9658 410.715 78.7573C410.715 80.5488 412.167 82.0012 413.959 82.0012Z" fill="white"/>
<path opacity="0.5" d="M542.021 150.424C544.708 150.424 546.886 148.245 546.886 145.558C546.886 142.871 544.708 140.692 542.021 140.692C539.334 140.692 537.156 142.871 537.156 145.558C537.156 148.245 539.334 150.424 542.021 150.424Z" fill="white"/>
<path opacity="0.5" d="M508.953 150.424C511.64 150.424 513.818 148.245 513.818 145.558C513.818 142.871 511.64 140.692 508.953 140.692C506.266 140.692 504.088 142.871 504.088 145.558C504.088 148.245 506.266 150.424 508.953 150.424Z" fill="white"/>
<path opacity="0.5" d="M475.885 150.424C478.572 150.424 480.75 148.245 480.75 145.558C480.75 142.871 478.572 140.692 475.885 140.692C473.198 140.692 471.02 142.871 471.02 145.558C471.02 148.245 473.198 150.424 475.885 150.424Z" fill="white"/>
<path d="M619.145 230.907C619.145 230.907 629.884 233.756 628.584 244.132C628.584 244.132 642.483 235.149 648.471 222.787C650.164 219.475 650.536 215.643 649.51 212.067C648.169 207.711 644.458 203.105 634.447 205.289L636.952 212.265C637.922 214.841 638.02 217.664 637.233 220.302C635.84 224.689 631.578 230.023 619.145 230.907Z" fill="#5C369A"/>
<path opacity="0.3" d="M650.061 215.54C650.133 218.059 649.587 220.558 648.471 222.818C642.493 235.159 628.584 244.152 628.584 244.152C629.884 233.755 619.145 230.938 619.145 230.938C631.568 230.033 635.84 224.7 637.212 220.323C637.955 217.844 637.915 215.198 637.098 212.743L636.942 212.286L634.437 205.299C644.437 203.126 648.159 207.732 649.489 212.088C649.831 213.209 650.023 214.369 650.061 215.54V215.54Z" fill="white"/>
<path opacity="0.3" d="M650.061 215.54C644.531 206.796 637.586 212.317 637.098 212.722L634.468 205.247C644.468 203.074 648.19 207.68 649.52 212.036C649.856 213.175 650.038 214.353 650.061 215.54Z" fill="white"/>
<path d="M656.132 320.872C656.132 320.872 658.513 367.398 642.254 390.719L660.966 410.151C660.966 410.151 695.978 382.911 699.877 325.842C699.918 325.842 692.745 331.466 656.132 320.872Z" fill="#F9B499"/>
<path d="M689.543 327.141C689.543 327.141 687.558 367.606 656.132 405.119L661.008 410.182C661.008 410.182 693.4 388.161 699.897 325.883C699.897 325.852 696.831 326.902 689.543 327.141Z" fill="#F7A48B"/>
<path opacity="0.2" d="M645.446 275.26C655.467 302.064 655.841 335.251 652.827 363.479L653.232 352.354C653.731 326.528 652.92 300.151 645.446 275.26Z" fill="black"/>
<path opacity="0.2" d="M625.611 513.268C634 516.897 643.169 517.978 652.203 518.56C653.512 518.654 654.812 518.674 656.132 518.789C654.822 518.966 653.523 519.07 652.203 519.194C643.117 519.61 633.324 518.425 625.611 513.268Z" fill="black"/>
<path opacity="0.2" d="M625.611 528.853C630.206 531.245 635.663 530.86 640.705 530.694C645.186 530.444 651.62 529.467 656.132 528.853C647.545 531.619 633.397 534.582 625.611 528.853Z" fill="black"/>
<path d="M656.132 656.851H601.473C599.909 656.886 598.379 656.395 597.127 655.458C586.971 647.421 618.843 624.163 618.843 624.163L650.768 624.641L656.111 624.724L661.007 646.215C663.606 655.291 656.132 656.851 656.132 656.851Z" fill="#5C369A"/>
<path opacity="0.2" d="M656.132 656.851H610.974L610.34 656.476C638.886 650.404 649.281 628.176 650.768 624.641L656.111 624.724L661.007 646.214C663.606 655.291 656.132 656.851 656.132 656.851Z" fill="black"/>
<path d="M385.672 311.91C384.986 313.691 383.809 315.241 382.279 316.382C380.748 317.523 378.926 318.207 377.023 318.356H376.909C371.181 318.72 362.865 316.744 356.991 304.632C356.991 304.632 350.473 293.424 350.12 271.361L348.457 253.198C348.457 253.198 347.157 246.71 351.045 241.522C354.958 237.227 357.591 231.922 358.644 226.207C358.805 225.241 358.784 224.254 358.582 223.296C357.885 219.626 356.69 210.31 364.071 215.592L364.341 215.737C366.368 216.86 379.019 224.596 371.846 238.944C371.846 238.944 366.649 246.72 371.846 251.909C371.805 251.909 397.555 281.166 385.672 311.91Z" fill="#F9B499"/>
<path d="M376.92 318.345C371.192 318.709 362.876 316.734 357.002 304.621C357.002 304.621 350.484 293.413 350.131 271.351L348.467 253.187C348.467 253.187 347.168 246.7 351.056 241.512C354.963 237.218 357.592 231.917 358.645 226.207C358.806 225.241 358.785 224.254 358.582 223.296C357.886 219.626 356.69 210.31 364.071 215.592L364.341 215.737C364.955 218.129 365.1 221.778 363.811 227.288C362.97 230.688 361.43 233.874 359.289 236.646C357.033 239.651 354.185 245.795 354.996 257.138C354.954 257.097 349.777 304.341 376.92 318.345Z" fill="#F7A48B"/>
<path d="M303.081 158.523C306.663 158.523 309.567 154.459 309.567 149.446C309.567 144.433 306.663 140.37 303.081 140.37C299.498 140.37 296.594 144.433 296.594 149.446C296.594 154.459 299.498 158.523 303.081 158.523Z" fill="#F9B499"/>
</svg>
